# xmcd
#
# Track frame offsets:
#	150
#	11792
#	23335
#	33969
#	44406
#	56590
#	69524
#	81910
#	93697
#	107147
#	120592
#	130924
#
# Disc length: 1886 seconds
#
# Revision: 0
# Processed by: cddbd v1.5PL3 Copyright (c) Steve Scherf et al.
# Submitted via: dBpowerAMP V4.0
#
DISCID=9a075c0c
DTITLE=Moe Bandy and Joe Stampley - The Ultimate Moe And Joe
DYEAR=1900
DGENRE=Country
TTITLE0=Just Good Ole Boys
TTITLE1=Holding The Bag
TTITLE2=Tell Ole I Aint Here (He Better Get On Home)
TTITLE3=Hey Joe (Hey Moe)
TTITLE4=Honkey Tonk Queen
TTITLE5=Wheres The Dress
TTITLE6=The Boys Night Out
TTITLE7=Daddys Honky Tonk
TTITLE8=Still On A Roll
TTITLE9=We've got Our Moe-Joe Workin
TTITLE10=Country Boys
TTITLE11=Lets Hear It For The Workin Man
EXTD=
EXTT0=
EXTT1=
EXTT2=
EXTT3=
EXTT4=
EXTT5=
EXTT6=
EXTT7=
EXTT8=
EXTT9=
EXTT10=
EXTT11=
PLAYORDER=
